<svg width="74" height="66" viewBox="0 0 74 66" fill="none" xmlns="http://www.w3.org/2000/svg">
<path d="M48.8703 32.2654C51.63 32.2654 54.0528 30.7736 55.7515 28.5118C57.45 26.2503 58.471 23.1717 58.471 19.8136C58.471 16.4555 57.45 13.377 55.7515 11.1155C54.0528 8.85361 51.63 7.36185 48.8703 7.36185C46.1105 7.36185 43.6878 8.85361 41.9891 11.1155C40.2906 13.377 39.2696 16.4555 39.2696 19.8136C39.2696 23.1717 40.2906 26.2503 41.9891 28.5118C43.6878 30.7736 46.1105 32.2654 48.8703 32.2654Z" fill="url(#paint0_linear_4_144)" stroke="url(#paint1_linear_4_144)" stroke-width="2"/>
<path fill-rule="evenodd" clip-rule="evenodd" d="M48.8703 1C48.4462 1 48.1024 1.34381 48.1024 1.76792V5.54898C48.1024 5.97309 48.4462 6.31689 48.8703 6.31689C49.2944 6.31689 49.6382 5.97309 49.6382 5.54898V1.76792C49.6382 1.34381 49.2944 1 48.8703 1ZM48.8703 33.3104C48.4462 33.3104 48.1024 33.6542 48.1024 34.0783V37.8593C48.1024 38.2835 48.4462 38.6273 48.8703 38.6273C49.2944 38.6273 49.6382 38.2835 49.6382 37.8593V34.0783C49.6382 33.6542 49.2944 33.3104 48.8703 33.3104ZM54.8002 3.8578C54.9971 3.38919 55.4799 3.26565 55.8785 3.58186C56.2771 3.89808 56.4406 4.53431 56.2437 5.00292L55.0735 7.78785C54.8766 8.25646 54.3939 8.38 53.9953 8.06379C53.5967 7.74757 53.4331 7.11134 53.63 6.64272L54.8002 3.8578ZM43.7453 31.5635C43.3467 31.2472 42.864 31.3708 42.6671 31.8394L41.4969 34.6243C41.3 35.0929 41.4635 35.7292 41.8621 36.0454C42.2607 36.3616 42.7435 36.2381 42.9404 35.7694L44.1106 32.9845C44.3075 32.5159 44.1439 31.8797 43.7453 31.5635ZM60.1159 10.0688C60.4977 9.76644 60.9603 9.8849 61.1491 10.3334C61.3379 10.7819 61.1814 11.3906 60.7995 11.693L58.6399 13.4032C58.258 13.7056 57.7955 13.5872 57.6067 13.1387C57.4179 12.6901 57.5744 12.0814 57.9562 11.7791L60.1159 10.0688ZM40.1339 26.4886C39.9452 26.0401 39.4826 25.9216 39.1007 26.224L36.9411 27.9342C36.5592 28.2366 36.4027 28.8453 36.5915 29.2938C36.7803 29.7423 37.2429 29.8608 37.6247 29.5584L39.7844 27.8482C40.1662 27.5458 40.3227 26.9371 40.1339 26.4886ZM61.9775 18.7911C62.5422 18.7911 63 19.2489 63 19.8136C63 20.3783 62.5422 20.8361 61.9775 20.8361H60.0293C59.4646 20.8361 59.0068 20.3783 59.0068 19.8136C59.0068 19.2489 59.4646 18.7911 60.0293 18.7911H61.9775ZM38.7338 19.8136C38.7338 19.2489 38.276 18.7911 37.7113 18.7911H35.7631C35.1984 18.7911 34.7406 19.2489 34.7406 19.8136C34.7406 20.3783 35.1984 20.8361 35.7631 20.8361H37.7113C38.276 20.8361 38.7338 20.3783 38.7338 19.8136ZM60.7996 27.9342C61.1814 28.2366 61.3379 28.8453 61.1491 29.2938C60.9603 29.7423 60.4977 29.8608 60.1159 29.5584L57.9562 27.8482C57.5744 27.5458 57.4179 26.9371 57.6067 26.4886C57.7955 26.0401 58.258 25.9216 58.6399 26.224L60.7996 27.9342ZM40.1339 13.1387C40.3227 12.6901 40.1662 12.0814 39.7844 11.7791L37.6247 10.0688C37.2429 9.76644 36.7803 9.8849 36.5915 10.3334C36.4027 10.7819 36.5592 11.3906 36.9411 11.693L39.1007 13.4032C39.4826 13.7056 39.9452 13.5872 40.1339 13.1387ZM56.2437 34.6243C56.4406 35.0929 56.2771 35.7292 55.8785 36.0454C55.4799 36.3616 54.9971 36.2381 54.8002 35.7694L53.63 32.9845C53.4331 32.5159 53.5967 31.8797 53.9953 31.5635C54.3939 31.2472 54.8766 31.3708 55.0735 31.8394L56.2437 34.6243ZM43.7453 8.06378C44.1439 7.74756 44.3075 7.11133 44.1106 6.64272L42.9404 3.85779C42.7435 3.38918 42.2607 3.26564 41.8621 3.58185C41.4635 3.89807 41.3 4.5343 41.4969 5.00292L42.6671 7.78784C42.864 8.25645 43.3467 8.37999 43.7453 8.06378Z" fill="url(#paint2_linear_4_144)"/>
<g filter="url(#filter0_bd_4_144)">
<mask id="path-3-outside-1_4_144" maskUnits="userSpaceOnUse" x="15" y="11.5425" width="44" height="36" fill="black">
<rect fill="white" x="15" y="11.5425" width="44" height="36"/>
<path fill-rule="evenodd" clip-rule="evenodd" d="M45.3978 27.9692C45.3978 28.4729 45.3784 28.9704 45.3406 29.4607C46.508 28.1099 48.0325 27.2922 49.7005 27.2922C53.373 27.2922 56.3502 31.2562 56.3502 36.1461C56.3502 41.036 53.373 45.0001 49.7005 45.0001C49.6991 45.0001 49.6976 45.0001 49.6961 45.0001H23.853C23.8504 45.0001 23.8478 45.0001 23.8452 45.0001C23.8426 45.0001 23.84 45.0001 23.8375 45.0001H23.8061V44.9999C20.0436 44.9719 17 40.9021 17 35.8857C17 30.8878 20.0213 26.8295 23.7646 26.772C24.2217 19.3645 28.8816 13.5425 34.5628 13.5425C40.5468 13.5425 45.3978 20.0016 45.3978 27.9692Z"/>
</mask>
<path fill-rule="evenodd" clip-rule="evenodd" d="M45.3978 27.9692C45.3978 28.4729 45.3784 28.9704 45.3406 29.4607C46.508 28.1099 48.0325 27.2922 49.7005 27.2922C53.373 27.2922 56.3502 31.2562 56.3502 36.1461C56.3502 41.036 53.373 45.0001 49.7005 45.0001C49.6991 45.0001 49.6976 45.0001 49.6961 45.0001H23.853C23.8504 45.0001 23.8478 45.0001 23.8452 45.0001C23.8426 45.0001 23.84 45.0001 23.8375 45.0001H23.8061V44.9999C20.0436 44.9719 17 40.9021 17 35.8857C17 30.8878 20.0213 26.8295 23.7646 26.772C24.2217 19.3645 28.8816 13.5425 34.5628 13.5425C40.5468 13.5425 45.3978 20.0016 45.3978 27.9692Z" fill="url(#paint3_linear_4_144)" shape-rendering="crispEdges"/>
<path d="M45.3406 29.4607L43.3465 29.3069L42.879 35.3681L46.8539 30.7684L45.3406 29.4607ZM23.853 45.0001V43.0001L23.85 43.0001L23.853 45.0001ZM23.8375 45.0001L23.8404 43.0001H23.8375V45.0001ZM23.8061 45.0001H21.8061V47.0001H23.8061V45.0001ZM23.8061 44.9999H25.8061V43.0148L23.821 43L23.8061 44.9999ZM23.7646 26.772L23.7953 28.7717L25.6468 28.7433L25.7608 26.8951L23.7646 26.772ZM47.3347 29.6146C47.3765 29.073 47.3978 28.5242 47.3978 27.9692H43.3978C43.3978 28.4216 43.3804 28.8678 43.3465 29.3069L47.3347 29.6146ZM49.7005 25.2922C47.3379 25.2922 45.2934 26.4565 43.8274 28.153L46.8539 30.7684C47.7225 29.7633 48.7272 29.2922 49.7005 29.2922V25.2922ZM58.3502 36.1461C58.3502 33.3096 57.4892 30.6649 56.0017 28.6844C54.5138 26.7031 52.3062 25.2922 49.7005 25.2922V29.2922C50.7673 29.2922 51.8846 29.8632 52.8033 31.0865C53.7226 32.3105 54.3502 34.0927 54.3502 36.1461H58.3502ZM49.7005 47.0001C52.3062 47.0001 54.5138 45.5891 56.0017 43.6079C57.4892 41.6274 58.3502 38.9826 58.3502 36.1461H54.3502C54.3502 38.1995 53.7226 39.9818 52.8033 41.2058C51.8846 42.429 50.7673 43.0001 49.7005 43.0001V47.0001ZM49.6961 47.0001C49.6961 47.0001 49.6962 47.0001 49.697 47.0001C49.6977 47.0001 49.699 47.0001 49.7005 47.0001V43.0001C49.7006 43.0001 49.7005 43.0001 49.6996 43.0001C49.699 43.0001 49.6976 43.0001 49.6961 43.0001V47.0001ZM49.6961 43.0001H23.853V47.0001H49.6961V43.0001ZM23.8452 47.0001C23.8488 47.0001 23.8523 47.0001 23.8559 47.0001L23.85 43.0001C23.8484 43.0001 23.8468 43.0001 23.8452 43.0001V47.0001ZM23.8345 47.0001C23.8381 47.0001 23.8416 47.0001 23.8452 47.0001V43.0001C23.8436 43.0001 23.842 43.0001 23.8404 43.0001L23.8345 47.0001ZM23.8375 43.0001H23.8061V47.0001H23.8375V43.0001ZM25.8061 45.0001V44.9999H21.8061V45.0001H25.8061ZM15 35.8857C15 38.7842 15.8769 41.4853 17.3899 43.5105C18.9031 45.5359 21.1446 46.9802 23.7912 46.9999L23.821 43C22.7051 42.9917 21.5436 42.387 20.5943 41.1164C19.6449 39.8456 19 38.0036 19 35.8857H15ZM23.7339 24.7722C21.1013 24.8126 18.8756 26.2611 17.3731 28.2835C15.8705 30.3061 15 32.9977 15 35.8857H19C19 33.7758 19.6401 31.9393 20.584 30.6689C21.528 29.3982 22.6846 28.7888 23.7953 28.7717L23.7339 24.7722ZM34.5628 11.5425C27.3691 11.5425 22.2581 18.7118 21.7684 26.6488L25.7608 26.8951C26.1852 20.0171 30.3942 15.5425 34.5628 15.5425V11.5425ZM47.3978 27.9692C47.3978 23.5939 46.0684 19.5559 43.8235 16.5669C41.5782 13.5772 38.3243 11.5425 34.5628 11.5425V15.5425C36.7854 15.5425 38.949 16.7373 40.6251 18.9691C42.3018 21.2015 43.3978 24.377 43.3978 27.9692H47.3978Z" fill="url(#paint4_linear_4_144)" mask="url(#path-3-outside-1_4_144)"/>
</g>
<defs>
<filter id="filter0_bd_4_144" x="0" y="0.542511" width="73.3502" height="65.4576" filterUnits="userSpaceOnUse" color-interpolation-filters="sRGB">
<feFlood flood-opacity="0" result="BackgroundImageFix"/>
<feGaussianBlur in="BackgroundImageFix" stdDeviation="5"/>
<feComposite in2="SourceAlpha" operator="in" result="effect1_backgroundBlur_4_144"/>
<feColorMatrix in="SourceAlpha" type="matrix" values="0 0 0 0 0 0 0 0 0 0 0 0 0 0 0 0 0 0 127 0" result="hardAlpha"/>
<feOffset dy="4"/>
<feGaussianBlur stdDeviation="7.5"/>
<feComposite in2="hardAlpha" operator="out"/>
<feColorMatrix type="matrix" values="0 0 0 0 0 0 0 0 0 0 0 0 0 0 0 0 0 0 0.1 0"/>
<feBlend mode="normal" in2="effect1_backgroundBlur_4_144" result="effect2_dropShadow_4_144"/>
<feBlend mode="normal" in="SourceGraphic" in2="effect2_dropShadow_4_144" result="shape"/>
</filter>
<linearGradient id="paint0_linear_4_144" x1="53.7082" y1="9.99781" x2="41.6528" y2="28.6013" gradientUnits="userSpaceOnUse">
<stop offset="0.182844" stop-color="#FFE600"/>
<stop offset="0.980542" stop-color="#F09000"/>
</linearGradient>
<linearGradient id="paint1_linear_4_144" x1="44.4771" y1="5.74293" x2="63.7485" y2="40.5077" gradientUnits="userSpaceOnUse">
<stop stop-color="#FFE600"/>
<stop offset="1" stop-color="#9C8D00"/>
</linearGradient>
<linearGradient id="paint2_linear_4_144" x1="59.2372" y1="5.9079" x2="31.1986" y2="30.5912" gradientUnits="userSpaceOnUse">
<stop stop-color="#FFE600"/>
<stop offset="1" stop-color="#AA9900"/>
</linearGradient>
<linearGradient id="paint3_linear_4_144" x1="29.2305" y1="13.4113" x2="44.4116" y2="42.1074" gradientUnits="userSpaceOnUse">
<stop stop-color="white"/>
<stop offset="0.708333" stop-color="#9DDCFF" stop-opacity="0.69"/>
</linearGradient>
<linearGradient id="paint4_linear_4_144" x1="35.3989" y1="2.6492" x2="57.0748" y2="54.2667" gradientUnits="userSpaceOnUse">
<stop stop-color="white"/>
<stop offset="0.713542" stop-color="#85C6EC" stop-opacity="0.71"/>
</linearGradient>
</defs>
</svg>
