<svg width="208" height="138" viewBox="0 0 208 138" fill="none" xmlns="http://www.w3.org/2000/svg">
<g filter="url(#filter0_d_104_123)">
<mask id="path-1-inside-1_104_123" fill="white">
<path fill-rule="evenodd" clip-rule="evenodd" d="M143.342 60.5401C143.342 62.2495 143.254 63.9384 143.084 65.6026C148.359 61.0176 155.249 58.242 162.788 58.242C179.385 58.242 192.84 71.697 192.84 88.2945C192.84 104.892 179.385 118.347 162.788 118.347H45.9584C45.9511 118.347 45.9438 118.347 45.9364 118.347C45.9291 118.347 45.9218 118.347 45.9145 118.347H45.7597V118.347C28.7553 118.251 15 104.437 15 87.4106C15 70.4465 28.6544 56.6714 45.5723 56.4763C47.6379 31.3333 68.6983 11.5721 94.3741 11.5721C121.418 11.5721 143.342 33.4959 143.342 60.5401Z"/>
</mask>
<path fill-rule="evenodd" clip-rule="evenodd" d="M143.342 60.5401C143.342 62.2495 143.254 63.9384 143.084 65.6026C148.359 61.0176 155.249 58.242 162.788 58.242C179.385 58.242 192.84 71.697 192.84 88.2945C192.84 104.892 179.385 118.347 162.788 118.347H45.9584C45.9511 118.347 45.9438 118.347 45.9364 118.347C45.9291 118.347 45.9218 118.347 45.9145 118.347H45.7597V118.347C28.7553 118.251 15 104.437 15 87.4106C15 70.4465 28.6544 56.6714 45.5723 56.4763C47.6379 31.3333 68.6983 11.5721 94.3741 11.5721C121.418 11.5721 143.342 33.4959 143.342 60.5401Z" fill="url(#paint0_linear_104_123)" shape-rendering="crispEdges"/>
<path d="M143.084 65.6026L141.094 65.3983L140.577 70.4306L144.395 67.1122L143.084 65.6026ZM45.7597 118.347H43.7597V120.347H45.7597V118.347ZM45.7597 118.347H47.7597V116.358L45.7709 116.347L45.7597 118.347ZM45.5723 56.4763L45.5954 58.4762L47.4165 58.4552L47.5656 56.6401L45.5723 56.4763ZM145.073 65.8069C145.251 64.075 145.342 62.3178 145.342 60.5401H141.342C141.342 62.1811 141.258 63.8018 141.094 65.3983L145.073 65.8069ZM162.788 56.242C154.749 56.242 147.397 59.2038 141.772 64.093L144.395 67.1122C149.321 62.8314 155.75 60.242 162.788 60.242V56.242ZM194.84 88.2945C194.84 70.5924 180.49 56.242 162.788 56.242V60.242C178.281 60.242 190.84 72.8015 190.84 88.2945H194.84ZM162.788 120.347C180.49 120.347 194.84 105.997 194.84 88.2945H190.84C190.84 103.788 178.281 116.347 162.788 116.347V120.347ZM162.788 116.347H45.9584V120.347H162.788V116.347ZM45.9364 120.347C45.9407 120.347 45.9449 120.347 45.9485 120.347C45.9522 120.347 45.9554 120.347 45.9584 120.347V116.347C45.9541 116.347 45.95 116.347 45.9464 116.347C45.9426 116.347 45.9395 116.347 45.9364 116.347V120.347ZM45.9145 120.347C45.9175 120.347 45.9207 120.347 45.9244 120.347C45.928 120.347 45.9322 120.347 45.9364 120.347V116.347C45.9334 116.347 45.9303 116.347 45.9265 116.347C45.9229 116.347 45.9188 116.347 45.9145 116.347V120.347ZM45.9145 116.347H45.7597V120.347H45.9145V116.347ZM47.7597 118.347V118.347H43.7597V118.347H47.7597ZM13 87.4106C13 105.538 27.6445 120.245 45.7485 120.347L45.7709 116.347C29.866 116.258 17 103.337 17 87.4106H13ZM45.5493 54.4764C27.5371 54.6842 13 69.3496 13 87.4106H17C17 71.5433 29.7717 58.6587 45.5954 58.4762L45.5493 54.4764ZM94.3741 9.57214C67.6486 9.57214 45.7292 30.1406 43.579 56.3125L47.5656 56.6401C49.5467 32.5261 69.7479 13.5721 94.3741 13.5721V9.57214ZM145.342 60.5401C145.342 32.3913 122.523 9.57214 94.3741 9.57214V13.5721C120.314 13.5721 141.342 34.6004 141.342 60.5401H145.342Z" fill="url(#paint1_linear_104_123)" mask="url(#path-1-inside-1_104_123)"/>
</g>
<defs>
<filter id="filter0_d_104_123" x="0" y="0.572144" width="207.84" height="136.775" filterUnits="userSpaceOnUse" color-interpolation-filters="sRGB">
<feFlood flood-opacity="0" result="BackgroundImageFix"/>
<feColorMatrix in="SourceAlpha" type="matrix" values="0 0 0 0 0 0 0 0 0 0 0 0 0 0 0 0 0 0 127 0" result="hardAlpha"/>
<feOffset dy="4"/>
<feGaussianBlur stdDeviation="7.5"/>
<feComposite in2="hardAlpha" operator="out"/>
<feColorMatrix type="matrix" values="0 0 0 0 0 0 0 0 0 0 0 0 0 0 0 0 0 0 0.1 0"/>
<feBlend mode="normal" in2="BackgroundImageFix" result="effect1_dropShadow_104_123"/>
<feBlend mode="normal" in="SourceGraphic" in2="effect1_dropShadow_104_123" result="shape"/>
</filter>
<linearGradient id="paint0_linear_104_123" x1="70.2747" y1="11.1269" x2="113.053" y2="118.792" gradientUnits="userSpaceOnUse">
<stop stop-color="white"/>
<stop offset="0.708333" stop-color="#9DDCFF" stop-opacity="0.69"/>
</linearGradient>
<linearGradient id="paint1_linear_104_123" x1="98.1524" y1="-25.4025" x2="157.272" y2="162.051" gradientUnits="userSpaceOnUse">
<stop stop-color="white"/>
<stop offset="0.713542" stop-color="#85C6EC" stop-opacity="0.71"/>
</linearGradient>
</defs>
</svg>
