<svg width="15" height="30" viewBox="0 0 15 30" fill="none" xmlns="http://www.w3.org/2000/svg">
<path d="M6.87272 1.90903L2.88549 14.3243M6.87272 1.90903L2.88549 14.3243M6.87272 1.90903C6.92752 1.7384 7.02381 1.53877 7.19095 1.36478C7.36094 1.18781 7.64708 1 8.03116 1H12.761C13.1616 1 13.4526 1.2021 13.6194 1.38339C13.7807 1.55855 13.8702 1.75464 13.9202 1.91135C14.0194 2.2219 14.0334 2.59656 13.9205 2.95082L11.8597 9.41495H12.2079C12.6729 9.41495 12.9839 9.68141 13.1406 9.88557C13.2941 10.0857 13.3699 10.3043 13.4073 10.4769C13.4778 10.8018 13.4735 11.265 13.2291 11.675L3.26192 28.3931C3.12079 28.6298 2.79288 29.0014 2.23987 29C1.72623 28.9986 1.41062 28.6711 1.27602 28.4801C0.994784 28.081 0.929375 27.5388 1.07638 27.0608L4.39249 16.2784M6.87272 1.90903L4.39249 16.2784M2.88549 14.3243L3.83759 14.6301M2.88549 14.3243L3.83759 14.6301M3.83759 14.6301L2.88549 14.3243C2.77152 14.6792 2.78531 15.0546 2.88423 15.3654C2.93417 15.5223 3.0235 15.7186 3.18468 15.8941C3.35147 16.0756 3.64272 16.2784 4.04393 16.2784H4.39249M3.83759 14.6301L4.39249 16.2784" fill="url(#paint0_linear_4_253)" stroke="url(#paint1_linear_4_253)" stroke-width="2"/>
<defs>
<linearGradient id="paint0_linear_4_253" x1="10.3088" y1="3.98044" x2="-5.32755" y2="16.6305" gradientUnits="userSpaceOnUse">
<stop offset="0.182844" stop-color="#FFE600"/>
<stop offset="0.980542" stop-color="#F09000"/>
</linearGradient>
<linearGradient id="paint1_linear_4_253" x1="4.64352" y1="-5.44399" x2="21.8262" y2="33.9805" gradientUnits="userSpaceOnUse">
<stop offset="0.14688" stop-color="#FFE600"/>
<stop offset="0.938214" stop-color="#F09000"/>
</linearGradient>
</defs>
</svg>
