<svg width="115" height="61" viewBox="0 0 115 61" fill="none" xmlns="http://www.w3.org/2000/svg">
<rect x="6.76334" y="35.5472" width="8.65169" height="24.0325" rx="4.32585" transform="rotate(15 6.76334 35.5472)" fill="url(#paint0_linear_4_53)"/>
<rect x="34.7985" y="35.5472" width="8.65169" height="24.0325" rx="4.32585" transform="rotate(15 34.7985 35.5472)" fill="url(#paint1_linear_4_53)"/>
<rect x="62.8336" y="35.5472" width="8.65169" height="24.0325" rx="4.32585" transform="rotate(15 62.8336 35.5472)" fill="url(#paint2_linear_4_53)"/>
<rect x="90.8688" y="35.5472" width="8.65169" height="24.0325" rx="4.32585" transform="rotate(15 90.8688 35.5472)" fill="url(#paint3_linear_4_53)"/>
<rect x="22.1441" y="0.940353" width="8.65169" height="24.0325" rx="4.32585" transform="rotate(15 22.1441 0.940353)" fill="url(#paint4_linear_4_53)"/>
<rect x="50.1793" y="0.940353" width="8.65169" height="24.0325" rx="4.32585" transform="rotate(15 50.1793 0.940353)" fill="url(#paint5_linear_4_53)"/>
<rect x="78.2144" y="0.940353" width="8.65169" height="24.0325" rx="4.32585" transform="rotate(15 78.2144 0.940353)" fill="url(#paint6_linear_4_53)"/>
<rect x="106.25" y="0.940353" width="8.65169" height="24.0325" rx="4.32585" transform="rotate(15 106.25 0.940353)" fill="url(#paint7_linear_4_53)"/>
<defs>
<linearGradient id="paint0_linear_4_53" x1="7.72464" y1="56.6958" x2="15.415" y2="38.4311" gradientUnits="userSpaceOnUse">
<stop stop-color="#3981EE"/>
<stop offset="1" stop-color="#92BDFF"/>
</linearGradient>
<linearGradient id="paint1_linear_4_53" x1="35.7598" y1="56.6958" x2="43.4502" y2="38.4311" gradientUnits="userSpaceOnUse">
<stop stop-color="#3981EE"/>
<stop offset="1" stop-color="#92BDFF"/>
</linearGradient>
<linearGradient id="paint2_linear_4_53" x1="63.7949" y1="56.6958" x2="71.4853" y2="38.4311" gradientUnits="userSpaceOnUse">
<stop stop-color="#3981EE"/>
<stop offset="1" stop-color="#92BDFF"/>
</linearGradient>
<linearGradient id="paint3_linear_4_53" x1="91.8301" y1="56.6958" x2="99.5205" y2="38.4311" gradientUnits="userSpaceOnUse">
<stop stop-color="#3981EE"/>
<stop offset="1" stop-color="#92BDFF"/>
</linearGradient>
<linearGradient id="paint4_linear_4_53" x1="23.1054" y1="22.0889" x2="30.7958" y2="3.82425" gradientUnits="userSpaceOnUse">
<stop stop-color="#3981EE"/>
<stop offset="1" stop-color="#92BDFF"/>
</linearGradient>
<linearGradient id="paint5_linear_4_53" x1="51.1406" y1="22.0889" x2="58.831" y2="3.82425" gradientUnits="userSpaceOnUse">
<stop stop-color="#3981EE"/>
<stop offset="1" stop-color="#92BDFF"/>
</linearGradient>
<linearGradient id="paint6_linear_4_53" x1="79.1757" y1="22.0889" x2="86.8661" y2="3.82425" gradientUnits="userSpaceOnUse">
<stop stop-color="#3981EE"/>
<stop offset="1" stop-color="#92BDFF"/>
</linearGradient>
<linearGradient id="paint7_linear_4_53" x1="107.211" y1="22.0889" x2="114.901" y2="3.82425" gradientUnits="userSpaceOnUse">
<stop stop-color="#3981EE"/>
<stop offset="1" stop-color="#92BDFF"/>
</linearGradient>
</defs>
</svg>
