<svg width="128" height="128" viewBox="0 0 128 128" fill="none" xmlns="http://www.w3.org/2000/svg">
<circle cx="64.0356" cy="63.8582" r="39.8702" fill="url(#paint0_linear_4_52)" stroke="url(#paint1_linear_4_52)" stroke-width="2"/>
<path fill-rule="evenodd" clip-rule="evenodd" d="M64.0356 0C62.1189 0 60.5651 1.55382 60.5651 3.47055V14.5763C60.5651 16.4931 62.1189 18.0469 64.0356 18.0469C65.9523 18.0469 67.5062 16.4931 67.5062 14.5763V3.47055C67.5062 1.55382 65.9523 0 64.0356 0ZM64.0356 109.67C62.1189 109.67 60.5651 111.223 60.5651 113.14V124.246C60.5651 126.163 62.1189 127.716 64.0356 127.716C65.9523 127.716 67.5062 126.163 67.5062 124.246V113.14C67.5062 111.223 65.9523 109.67 64.0356 109.67ZM91.2239 9.82566C92.1822 8.16572 94.3048 7.59699 95.9647 8.55535C97.6247 9.51372 98.1934 11.6363 97.2351 13.2962L91.6822 22.9141C90.7238 24.574 88.6012 25.1428 86.9413 24.1844C85.2814 23.226 84.7126 21.1035 85.671 19.4435L91.2239 9.82566ZM41.13 103.532C39.4701 102.574 37.3475 103.142 36.3891 104.802L30.8362 114.42C29.8779 116.08 30.4466 118.203 32.1066 119.161C33.7665 120.119 35.8891 119.551 36.8474 117.891L42.4003 108.273C43.3587 106.613 42.7899 104.49 41.13 103.532ZM114.598 30.6588C116.258 29.7004 118.38 30.2691 119.338 31.9291C120.297 33.589 119.728 35.7116 118.068 36.6699L108.45 42.2228C106.79 43.1812 104.668 42.6124 103.709 40.9525C102.751 39.2926 103.32 37.17 104.98 36.2116L114.598 30.6588ZM24.3619 86.7638C23.4036 85.1039 21.281 84.5351 19.6211 85.4935L10.0032 91.0464C8.34324 92.0048 7.77451 94.1273 8.73287 95.7873C9.69124 97.4472 11.8138 98.0159 13.4737 97.0576L23.0916 91.5047C24.7516 90.5463 25.3203 88.4238 24.3619 86.7638ZM124.423 60.3876C126.34 60.3876 127.894 61.9414 127.894 63.8582C127.894 65.7749 126.34 67.3287 124.423 67.3287H113.318C111.401 67.3287 109.847 65.7749 109.847 63.8582C109.847 61.9414 111.401 60.3876 113.318 60.3876H124.423ZM18.2244 63.8582C18.2244 61.9414 16.6706 60.3876 14.7538 60.3876H3.64805C1.73132 60.3876 0.177498 61.9414 0.177498 63.8582C0.177498 65.7749 1.73132 67.3287 3.64805 67.3287H14.7538C16.6706 67.3287 18.2244 65.7749 18.2244 63.8582ZM118.068 91.0464C119.728 92.0048 120.297 94.1273 119.338 95.7873C118.38 97.4472 116.258 98.0159 114.598 97.0576L104.98 91.5047C103.32 90.5463 102.751 88.4238 103.709 86.7638C104.668 85.1039 106.79 84.5351 108.45 85.4935L118.068 91.0464ZM24.3619 40.9525C25.3203 39.2926 24.7516 37.17 23.0916 36.2116L13.4737 30.6588C11.8138 29.7004 9.69124 30.2691 8.73287 31.9291C7.7745 33.589 8.34324 35.7116 10.0032 36.6699L19.6211 42.2228C21.281 43.1812 23.4036 42.6124 24.3619 40.9525ZM97.2351 114.42C98.1934 116.08 97.6247 118.203 95.9648 119.161C94.3048 120.119 92.1823 119.551 91.2239 117.891L85.671 108.273C84.7126 106.613 85.2814 104.49 86.9413 103.532C88.6013 102.574 90.7238 103.142 91.6822 104.802L97.2351 114.42ZM41.13 24.1844C42.7899 23.226 43.3587 21.1035 42.4003 19.4435L36.8474 9.82564C35.889 8.1657 33.7665 7.59696 32.1065 8.55533C30.4466 9.51369 29.8779 11.6362 30.8362 13.2962L36.3891 22.9141C37.3475 24.574 39.47 25.1427 41.13 24.1844Z" fill="url(#paint2_linear_4_52)"/>
<defs>
<linearGradient id="paint0_linear_4_52" x1="85.9001" y1="30.5409" x2="50.6202" y2="103.032" gradientUnits="userSpaceOnUse">
<stop offset="0.182844" stop-color="#FFE600"/>
<stop offset="0.980542" stop-color="#F09000"/>
</linearGradient>
<linearGradient id="paint1_linear_4_52" x1="44.1807" y1="16.0987" x2="98.9163" y2="147.572" gradientUnits="userSpaceOnUse">
<stop stop-color="#FFE600"/>
<stop offset="1" stop-color="#9C8D00"/>
</linearGradient>
<linearGradient id="paint2_linear_4_52" x1="110.888" y1="16.6586" x2="16.142" y2="127.716" gradientUnits="userSpaceOnUse">
<stop stop-color="#FFE600"/>
<stop offset="1" stop-color="#AA9900"/>
</linearGradient>
</defs>
</svg>
