<svg width="29" height="29" viewBox="0 0 29 29" fill="none" xmlns="http://www.w3.org/2000/svg">
<path d="M14.8703 23.9444C20.1814 23.9444 24.471 19.6009 24.471 14.2628C24.471 8.92457 20.1814 4.58109 14.8703 4.58109C9.55916 4.58109 5.26961 8.92457 5.26961 14.2628C5.26961 19.6009 9.55916 23.9444 14.8703 23.9444Z" fill="url(#paint0_linear_4_103)" stroke="url(#paint1_linear_4_103)" stroke-width="2"/>
<path fill-rule="evenodd" clip-rule="evenodd" d="M14.8703 0C14.4462 0 14.1024 0.343808 14.1024 0.767917V3.26286C14.1024 3.68697 14.4462 4.03077 14.8703 4.03077C15.2944 4.03077 15.6382 3.68697 15.6382 3.26286V0.767918C15.6382 0.343809 15.2944 0 14.8703 0ZM14.8703 24.4947C14.4462 24.4947 14.1024 24.8385 14.1024 25.2626V27.7576C14.1024 28.1817 14.4462 28.5255 14.8703 28.5255C15.2944 28.5255 15.6382 28.1817 15.6382 27.7576V25.2626C15.6382 24.8385 15.2944 24.4947 14.8703 24.4947ZM20.8833 2.19365C21.0949 1.82341 21.5649 1.69746 21.9333 1.91233C22.3016 2.1272 22.4287 2.60153 22.2171 2.97177L20.9904 5.11878C20.7788 5.48903 20.3088 5.61498 19.9404 5.4001C19.5721 5.18523 19.445 4.7109 19.6566 4.34066L20.8833 2.19365ZM9.80017 23.1254C9.43185 22.9105 8.96177 23.0364 8.75022 23.4067L7.52346 25.5537C7.31191 25.9239 7.439 26.3983 7.80732 26.6131C8.17565 26.828 8.64573 26.7021 8.85728 26.3318L10.084 24.1848C10.2956 23.8146 10.1685 23.3402 9.80017 23.1254ZM26.06 6.84857C26.4278 6.634 26.8972 6.75977 27.1084 7.12948C27.3197 7.49919 27.1928 7.97283 26.825 8.18739L24.6957 9.42955C24.328 9.64412 23.8586 9.51835 23.6473 9.14864C23.4361 8.77893 23.563 8.30529 23.9308 8.09073L26.06 6.84857ZM6.09329 19.3768C5.88205 19.0071 5.41265 18.8814 5.04486 19.0959L2.91562 20.3381C2.54783 20.5526 2.42092 21.0263 2.63216 21.396C2.84341 21.7657 3.3128 21.8915 3.68059 21.6769L5.80984 20.4347C6.17763 20.2202 6.30454 19.7465 6.09329 19.3768ZM28.2249 13.4876C28.653 13.4876 29 13.8346 29 14.2627C29 14.6908 28.653 15.0379 28.2249 15.0379H25.782C25.3539 15.0379 25.0068 14.6908 25.0068 14.2627C25.0068 13.8346 25.3539 13.4876 25.782 13.4876H28.2249ZM4.73379 14.2627C4.73379 13.8346 4.38674 13.4876 3.95864 13.4876H1.51576C1.08766 13.4876 0.740616 13.8346 0.740616 14.2627C0.740616 14.6908 1.08766 15.0379 1.51576 15.0379H3.95864C4.38674 15.0379 4.73379 14.6908 4.73379 14.2627ZM26.825 20.3381C27.1928 20.5526 27.3197 21.0263 27.1085 21.396C26.8972 21.7657 26.4278 21.8915 26.06 21.6769L23.9308 20.4347C23.563 20.2202 23.4361 19.7465 23.6473 19.3768C23.8586 19.0071 24.328 18.8814 24.6957 19.0959L26.825 20.3381ZM6.09329 9.14864C6.30454 8.77893 6.17763 8.30529 5.80984 8.09073L3.68059 6.84857C3.3128 6.634 2.84341 6.75977 2.63216 7.12948C2.42092 7.49918 2.54783 7.97283 2.91562 8.18739L5.04486 9.42955C5.41265 9.64412 5.88205 9.51835 6.09329 9.14864ZM22.2171 25.5537C22.4287 25.9239 22.3016 26.3983 21.9333 26.6131C21.565 26.828 21.0949 26.7021 20.8833 26.3318L19.6566 24.1848C19.445 23.8146 19.5721 23.3402 19.9404 23.1254C20.3088 22.9105 20.7788 23.0364 20.9904 23.4067L22.2171 25.5537ZM9.80017 5.4001C10.1685 5.18523 10.2956 4.71089 10.084 4.34065L8.85727 2.19364C8.64572 1.8234 8.17565 1.69745 7.80732 1.91232C7.439 2.12719 7.31191 2.60153 7.52346 2.97177L8.75022 5.11878C8.96176 5.48902 9.43184 5.61497 9.80017 5.4001Z" fill="url(#paint2_linear_4_103)"/>
<defs>
<linearGradient id="paint0_linear_4_103" x1="19.7082" y1="6.82132" x2="11.7829" y2="22.9537" gradientUnits="userSpaceOnUse">
<stop offset="0.182844" stop-color="#FFE600"/>
<stop offset="0.980542" stop-color="#F09000"/>
</linearGradient>
<linearGradient id="paint1_linear_4_103" x1="10.4771" y1="3.59566" x2="22.783" y2="32.8783" gradientUnits="userSpaceOnUse">
<stop stop-color="#FFE600"/>
<stop offset="1" stop-color="#9C8D00"/>
</linearGradient>
<linearGradient id="paint2_linear_4_103" x1="25.2372" y1="3.72071" x2="4.04526" y2="28.3293" gradientUnits="userSpaceOnUse">
<stop stop-color="#FFE600"/>
<stop offset="1" stop-color="#AA9900"/>
</linearGradient>
</defs>
</svg>
